<svg width="115" height="121" viewBox="0 0 115 121" fill="none" xmlns="http://www.w3.org/2000/svg">
<rect y="7" width="100" height="100" rx="3" fill="#4B4B4B"/>
<rect x="13" y="29" width="73" height="10" rx="5" fill="white"/>
<rect x="13" y="44" width="52" height="10" rx="5" fill="white"/>
<rect x="13" y="60" width="43" height="10" rx="5" fill="white"/>
<rect x="13" y="75" width="59" height="10" rx="5" fill="white"/>
<path d="M49 120.607L52 118L103.5 17.5C103.5 17.5 67 97.5 69 94.5C71 91.5 74.4101 92.5 82 77.5C89.5899 62.5 95.2461 69.3458 98 54.9352C100.754 40.5245 121.5 -1.39281 111 1.10719C100.5 3.6072 54.4859 79.7826 66.5 86.1073L49 120.607Z" fill="white" stroke="#4B4B4B"/>
</svg>
